<svg width="40" height="45" viewBox="0 0 40 45" fill="none" xmlns="http://www.w3.org/2000/svg">
<g filter="url(#filter0_d_209_11)">
<path d="M36.4129 29.4322L36.0012 28.671L33.9551 28.671L20.0298 33.6749L6.69933 19.7219L3.42749 18.6527C1.77548 19.8104 1.59074 23.1066 2.70042 24.2537L19.155 41.0001L36.5595 34.8303C34.9742 33.9723 33.6881 31.5306 36.4129 29.4334V29.4322ZM18.2312 33.9511L4.5193 19.8742H4.92932L18.5804 33.6737L18.23 33.9511H18.2312ZM19.2789 40.4962C19.2789 40.4962 17.3814 38.3011 19.8403 35.3814L34.7406 30.0388C34.7406 30.0388 33.0266 32.9526 35.0326 34.6733L19.2789 40.4974V40.4962ZM6.69933 19.7219L4.92932 18.1648L20.4315 12.687L36.0012 28.671L36.4117 29.4322C36.3997 29.4417 36.3878 29.4511 36.3759 29.4606L36.6691 29.3567L20.4315 12.687L3.49186 18.6728L6.69814 19.7207L6.69933 19.7219Z" fill="#222222"/>
</g>
<g filter="url(#filter1_d_209_11)">
<path d="M11.2788 7.39208C11.5071 7.10187 11.8076 6.70903 12.0483 6.42826C12.7691 5.65436 12.8627 5.55291 13.5186 4.98075C13.7132 4.82975 13.9439 4.64807 14.1696 4.47701C12.5047 5.81009 12.2927 7.28591 13.8204 8.19783C13.818 8.19783 13.818 8.19783 13.818 8.20019C15.9543 9.41765 20.6359 9.15457 24.3299 7.59499C27.9078 6.08496 29.2285 3.92491 27.4626 2.64138C25.9124 2.3665 24.0642 2.33465 22.1088 2.58239L21.9055 2.26505L22.0738 1.7389C23.2237 1.64098 24.3161 1.66458 25.259 1.81676C25.4872 1.85333 25.7877 1.91585 26.0122 1.96068C26.4462 2.06096 26.6819 2.12112 26.965 2.20724C27.2543 2.28864 27.5013 2.37004 27.9315 2.52105C28.353 2.67795 28.5351 2.74873 28.8731 2.90799C29.2516 3.07134 29.6193 3.2561 29.9743 3.46128C32.7878 5.13529 31.0381 8.18957 26.0733 10.2824C21.1223 12.3681 14.8132 12.6961 11.9859 11.0421C11.9847 11.0398 11.981 11.0374 11.9735 11.035H11.9785C10.4345 10.1101 10.2724 8.76763 11.2788 7.39208ZM24.1603 19.0948L24.1203 17.2144L22.7074 15.7279C18.0394 16.7283 13.4513 16.5136 10.8997 15.0921C10.891 15.0826 10.8698 15.0732 10.8611 15.0638C9.4169 14.2226 9.06022 13.1373 9.16872 11.9576C8.83076 13.6835 8.80332 14.3064 8.85196 15.7834C8.91182 16.7083 9.47676 17.5612 10.6129 18.2336L10.6216 18.2431C13.3416 19.8428 19.0084 20.1896 24.1603 19.0948ZM30.0529 21.2478C23.4644 23.7476 15.2185 23.8951 11.6368 21.5817C12.0236 22.4759 12.5499 23.3101 13.1981 24.0567C16.4855 26.1802 24.0543 26.0445 30.099 23.75C33.6371 22.4087 35.8694 20.6237 36.4555 18.9509L36.6201 18.4472C37.0105 17.1707 37.0841 16.1078 37.1464 15.1617C37.0753 17.2156 34.5175 19.5514 30.0529 21.2478ZM15.509 26.0622C15.7161 26.2486 16.3671 27.0048 19.6657 27.8401C20.5573 28.0264 22.8021 28.6246 26.9488 27.7551L26.9737 27.3977L26.6457 26.9116C22.7984 27.7728 18.5246 27.485 15.509 26.0622ZM25.0295 11.1872L28.5326 13.6988C28.5326 13.6988 29.2821 14.2096 28.575 14.5683C27.8704 14.9234 26.0609 15.7928 26.0609 15.7928L24.2737 15.1617L23.3771 15.5392L24.9584 16.838L24.9709 18.8589L25.9 18.4684L26.516 16.7614C26.516 16.7614 28.4079 16.0724 29.1587 15.8129C29.9132 15.5592 29.8122 16.4275 29.8122 16.4275L29.4405 20.5695L30.6752 20.0504L32.708 14.4621C32.708 14.4621 33.7855 13.9666 34.5437 13.5313C35.3007 13.096 35.5601 12.374 35.5601 12.374C35.5601 12.374 34.8218 12.0732 33.9713 12.315C33.1208 12.5545 32.0121 12.9816 32.0121 12.9816L26.2604 10.6705L25.0295 11.1872ZM17.6179 3.24067L19.9961 5.03266L20.6459 4.94064L19.3514 3.33269C19.3514 3.33269 19.0695 3.00001 19.4487 2.92097C19.8303 2.84075 20.7955 2.65435 20.7955 2.65435L21.5214 3.20292L22.0102 3.1345L21.4565 2.30162L21.7483 1.3779L21.2757 1.44279L20.7157 2.1459C20.7157 2.1459 19.733 2.2332 19.3464 2.26387C18.9573 2.29218 19.1244 1.89698 19.1244 1.89698L19.8702 0L19.2167 0.0908379L17.4957 2.46088C17.4957 2.46088 16.922 2.55998 16.5067 2.67205C16.0902 2.78294 15.8707 3.08731 15.8707 3.08731C15.8707 3.08731 16.1762 3.32089 16.6065 3.31263C17.0405 3.30438 17.6179 3.24067 17.6179 3.24067ZM29.3719 26.2663L27.833 25.5054L27.4788 25.6222L28.3905 26.3937C28.3905 26.3937 28.585 26.5506 28.3805 26.6344C28.176 26.717 27.6547 26.9199 27.6547 26.9199L27.2244 26.7382L26.9687 26.8255L27.3267 27.1865L27.2918 27.7138L27.5586 27.6265L27.7582 27.1983C27.7582 27.1983 28.2994 27.0461 28.5152 26.9918C28.7297 26.9364 28.681 27.1747 28.681 27.1747L28.4778 28.3131L28.8332 28.1963L29.5303 26.691C29.5303 26.691 29.8384 26.5766 30.0591 26.4716C30.2798 26.3666 30.3671 26.1731 30.3671 26.1731C30.3671 26.1731 30.1713 26.0717 29.9294 26.1224C29.6862 26.1708 29.3719 26.2663 29.3719 26.2663Z" fill="#222222"/>
</g>
<path d="M24.8255 11.1872L28.3286 13.6988C28.3286 13.6988 29.0781 14.2096 28.371 14.5683C27.6664 14.9234 25.8568 15.7928 25.8568 15.7928L24.0697 15.1617L23.1731 15.5392L24.7544 16.838L24.7669 18.8589L25.696 18.4684L26.312 16.7614C26.312 16.7614 28.2039 16.0724 28.9547 15.8129C29.7092 15.5592 29.6081 16.4275 29.6081 16.4275L29.2365 20.5695L30.4712 20.0504L32.5039 14.4621C32.5039 14.4621 33.5814 13.9666 34.3397 13.5313C35.0967 13.096 35.3561 12.374 35.3561 12.374C35.3561 12.374 34.6178 12.0732 33.7673 12.315C32.9167 12.5545 31.8081 12.9816 31.8081 12.9816L26.0564 10.6705L24.8255 11.1872ZM17.4139 3.24067L19.7921 5.03266L20.4419 4.94064L19.1474 3.33269C19.1474 3.33269 18.8655 3.00001 19.2447 2.92097C19.6263 2.84075 20.5915 2.65435 20.5915 2.65435L21.3173 3.20292L21.8062 3.1345L21.2525 2.30162L21.5443 1.3779L21.0717 1.44279L20.5117 2.1459C20.5117 2.1459 19.529 2.2332 19.1424 2.26387C18.7533 2.29218 18.9204 1.89698 18.9204 1.89698L19.6662 0L19.0127 0.0908379L17.2917 2.46088C17.2917 2.46088 16.718 2.55998 16.3027 2.67205C15.8862 2.78294 15.6667 3.08731 15.6667 3.08731C15.6667 3.08731 15.9722 3.32089 16.4025 3.31263C16.8365 3.30438 17.4139 3.24067 17.4139 3.24067ZM29.1679 26.2663L27.629 25.5054L27.2748 25.6222L28.1864 26.3937C28.1864 26.3937 28.381 26.5506 28.1765 26.6344C27.9719 26.717 27.4506 26.9199 27.4506 26.9199L27.0204 26.7382L26.7647 26.8255L27.1227 27.1865L27.0877 27.7138L27.3546 27.6265L27.5542 27.1983C27.5542 27.1983 28.0954 27.0461 28.3112 26.9918C28.5257 26.9364 28.477 27.1747 28.477 27.1747L28.2737 28.3131L28.6292 28.1963L29.3263 26.691C29.3263 26.691 29.6343 26.5766 29.8551 26.4716C30.0758 26.3666 30.1631 26.1731 30.1631 26.1731C30.1631 26.1731 29.9673 26.0717 29.7254 26.1224C29.4822 26.1708 29.1679 26.2663 29.1679 26.2663Z" fill="#FA7436"/>
<defs>
<filter id="filter0_d_209_11" x="0" y="12.687" width="38.6691" height="32.3132" filterUnits="userSpaceOnUse" color-interpolation-filters="sRGB">
<feFlood flood-opacity="0" result="BackgroundImageFix"/>
<feColorMatrix in="SourceAlpha" type="matrix" values="0 0 0 0 0 0 0 0 0 0 0 0 0 0 0 0 0 0 127 0" result="hardAlpha"/>
<feOffset dy="2"/>
<feGaussianBlur stdDeviation="1"/>
<feComposite in2="hardAlpha" operator="out"/>
<feColorMatrix type="matrix" values="0 0 0 0 0 0 0 0 0 0 0 0 0 0 0 0 0 0 0.25 0"/>
<feBlend mode="normal" in2="BackgroundImageFix" result="effect1_dropShadow_209_11"/>
<feBlend mode="normal" in="SourceGraphic" in2="effect1_dropShadow_209_11" result="shape"/>
</filter>
<filter id="filter1_d_209_11" x="6.83331" y="0" width="32.3131" height="32.3132" filterUnits="userSpaceOnUse" color-interpolation-filters="sRGB">
<feFlood flood-opacity="0" result="BackgroundImageFix"/>
<feColorMatrix in="SourceAlpha" type="matrix" values="0 0 0 0 0 0 0 0 0 0 0 0 0 0 0 0 0 0 127 0" result="hardAlpha"/>
<feOffset dy="2"/>
<feGaussianBlur stdDeviation="1"/>
<feComposite in2="hardAlpha" operator="out"/>
<feColorMatrix type="matrix" values="0 0 0 0 0 0 0 0 0 0 0 0 0 0 0 0 0 0 0.25 0"/>
<feBlend mode="normal" in2="BackgroundImageFix" result="effect1_dropShadow_209_11"/>
<feBlend mode="normal" in="SourceGraphic" in2="effect1_dropShadow_209_11" result="shape"/>
</filter>
</defs>
</svg>
