<svg width="112" height="111" viewBox="0 0 112 111" fill="none" xmlns="http://www.w3.org/2000/svg">
<path d="M61.567 0.220169C61.117 0.370837 60.4194 0.736744 60.0369 1.01656C59.6769 1.29637 52.8143 10.7239 44.8041 21.9809L30.2462 42.4286L26.1286 42.4932L22.011 42.5362L22.1235 41.8475C22.191 41.46 22.6185 37.6073 23.046 33.2809C23.4735 28.9546 23.8785 25.0157 23.946 24.5207C24.081 23.6382 24.1485 23.5736 25.6786 22.7988C27.2086 22.0239 29.3687 20.259 30.2687 19.0106L30.7187 18.3864L37.2214 19.0321C41.6315 19.441 43.949 19.5917 44.354 19.4626C45.6141 19.0536 45.7041 17.2026 44.489 16.7075C44.1965 16.5784 41.0015 16.2125 37.3564 15.8681C30.0212 15.2008 29.4587 15.2224 28.3787 16.3631C28.0186 16.729 27.2086 17.5685 26.5561 18.2357C25.8811 18.946 24.9136 19.6778 24.126 20.0437C22.1235 20.9692 21.426 21.5504 21.066 22.562C20.841 23.1216 20.3235 27.3403 19.7384 33.0011L18.7709 42.5362H17.7134H16.6334L16.7459 41.7183C16.8134 41.2878 17.5334 34.5509 18.3209 26.7592C19.1309 18.946 19.8959 12.4027 20.0084 12.166C20.346 11.5633 20.976 11.3265 22.191 11.3265C22.776 11.3265 28.7837 11.8646 35.5113 12.5103C46.3566 13.5435 47.8416 13.6296 48.3816 13.3713C49.4617 12.8332 49.4167 11.1328 48.3141 10.6808C48.0216 10.5732 44.0615 10.1427 39.4714 9.71223C34.9038 9.28175 29.0537 8.74365 26.4661 8.48536C23.856 8.2486 21.3585 8.11946 20.8185 8.18403C18.7709 8.48536 17.0159 10.1642 16.6109 12.2521C16.4759 12.8762 15.8458 18.5586 15.1933 24.8866L14.0233 36.4019L11.1882 36.5311C8.75816 36.6172 8.19565 36.7248 7.27313 37.1768C5.36058 38.1238 4.28055 39.9103 4.25805 42.2134C4.23555 43.2465 4.19055 43.3111 3.17803 43.9353C2.61551 44.2797 1.80549 44.99 1.40048 45.5065C-0.107055 47.4006 -0.0395533 45.7433 0.0279483 76.7808L0.09545 104.848L0.635463 105.967C1.28798 107.388 3.13303 109.045 4.59556 109.605C5.69809 110.014 6.86812 110.014 53.1968 110.014H100.673L101.843 109.497C103.238 108.895 104.903 107.28 105.578 105.86C106.051 104.891 106.073 104.547 106.141 96.6044L106.208 88.3822H107.041C108.976 88.3822 110.686 87.4567 111.271 86.0792C111.518 85.5195 111.586 83.4963 111.586 76.3288C111.586 67.7408 111.563 67.2242 111.136 66.4278C110.461 65.1579 109.516 64.6198 107.716 64.5337L106.186 64.4476V56.6559C106.186 50.1127 106.118 48.6706 105.826 47.702C105.421 46.4105 104.476 44.9469 103.598 44.3012C103.081 43.9138 103.036 43.7201 103.036 42.278C103.036 40.3623 102.36 38.8341 101.055 37.801C100.11 37.0692 98.4454 36.5095 97.1404 36.5095H96.2628L98.8954 32.8289C100.358 30.7842 101.663 28.6963 101.843 28.1367C102.383 26.4148 101.798 24.37 100.403 23.1432C100.065 22.8418 97.0954 20.8401 93.8103 18.7092C90.5252 16.5784 82.9875 11.6494 77.0474 7.77507C71.1072 3.90076 65.9546 0.586076 65.5946 0.413885C64.6721 -0.038118 62.602 -0.145738 61.567 0.220169ZM64.357 3.38419C65.7296 4.07295 97.6129 25.0157 98.1529 25.5538C99.1429 26.5655 98.9854 27.082 96.8028 30.1815C95.7003 31.7097 93.3153 35.1105 91.4477 37.7364L88.0726 42.5147L86.7676 42.5362H85.4851L88.1176 38.8556C89.5577 36.8109 90.8627 34.7876 91.0427 34.3141C91.3802 33.3455 91.2452 32.6137 90.3002 30.4828C89.7827 29.299 89.6702 28.7394 89.6252 26.7592C89.5802 24.8436 89.4677 24.3055 89.0852 23.7243C88.7701 23.2077 85.9801 21.2706 79.4999 17.0519C74.4823 13.7803 70.1397 11.0037 69.8247 10.896C68.8347 10.5301 67.7996 10.6593 65.9771 11.3696C64.447 11.9722 63.9295 12.0583 61.8145 12.1014C58.9794 12.166 58.1694 12.4458 57.2019 13.7587C56.8194 14.2538 52.1392 20.8186 46.7841 28.3304C41.429 35.8423 36.9289 42.1273 36.7939 42.278C36.6139 42.4501 36.0963 42.5362 35.3538 42.4932L34.2288 42.4286L47.9316 23.1647C55.4693 12.5749 61.8595 3.72857 62.107 3.51333C62.647 3.10438 63.682 3.03981 64.357 3.38419ZM77.7224 19.6778L86.2726 25.2525L86.4076 27.5986C86.5201 29.4282 86.6776 30.2676 87.1501 31.4514C87.4876 32.2693 87.7801 33.1088 87.8026 33.2809C87.8251 33.4747 86.4301 35.6271 84.6975 38.0808L81.5475 42.5147L78.7349 42.5362H75.8998L75.6523 41.0941C75.2923 39.1139 73.8298 36.4019 72.2997 34.8091C70.6797 33.1303 68.9472 32.0541 66.6296 31.2792C61.927 29.7295 56.3018 30.9994 52.8368 34.4002C50.9017 36.2943 49.4392 38.9848 49.0792 41.3094L48.9217 42.4286L44.8041 42.4932C41.4965 42.5362 40.709 42.4932 40.844 42.278C40.9565 42.1273 45.3216 35.9714 50.5642 28.5887L60.1044 15.2008H62.2195C63.8395 15.2008 64.7171 15.0717 66.0671 14.6627C67.0346 14.3614 67.9796 14.0385 68.1371 13.9309C68.3396 13.8018 68.6322 13.8018 68.8122 13.9094C69.0147 14.017 73.0198 16.5999 77.7224 19.6778ZM64.8971 34.0343C66.7196 34.5078 68.2271 35.3257 69.5997 36.6387C71.0172 37.9947 71.8722 39.4368 72.2997 41.2018L72.6147 42.5362H62.3995H52.1617L52.3192 41.7183C53.3543 36.2728 59.2719 32.6352 64.8971 34.0343ZM13.6183 40.4054C13.5508 40.7713 13.4833 41.417 13.4833 41.8044V42.5362H10.5582H7.63314V41.7614C7.63314 41.2018 7.81314 40.8358 8.28565 40.3623C8.93817 39.7596 9.00567 39.7381 11.3457 39.7381H13.7758L13.6183 40.4054ZM98.8279 40.1901C99.4804 40.6637 100.088 42.2349 99.7504 42.4932C99.6379 42.5793 97.8604 42.6223 95.7903 42.5793L92.0327 42.5147L92.9778 41.1372L93.9228 39.7381H96.0828C97.9279 39.7381 98.3329 39.8027 98.8279 40.1901ZM101.168 46.5397C102.585 47.6159 102.81 48.2831 102.81 51.2965V53.9439H53.0843H3.35803V51.2534C3.35803 49.3378 3.44803 48.3692 3.67304 47.9603C4.07805 47.2069 5.11307 46.2814 5.83309 46.0016C6.1931 45.8724 22.506 45.8079 53.3543 45.8294L100.29 45.8724L101.168 46.5397ZM102.81 60.8316V64.4907H94.3278C87.5326 64.4907 85.5301 64.5552 84.3825 64.8135C80.4449 65.7175 77.0699 68.6017 75.5848 72.3469C74.9548 73.9612 74.7298 77.2544 75.1348 78.9332C76.1473 83.1089 79.4774 86.5097 83.91 87.8657C84.9676 88.1885 86.3626 88.2531 93.9903 88.3392L102.81 88.4253V92.0628V95.7004H62.3545C22.0785 95.7004 21.876 95.7004 21.471 96.1309C20.9535 96.6905 20.9535 97.7236 21.471 98.2832C21.876 98.7137 22.0785 98.7137 62.3545 98.7137H102.81V101.447C102.81 103.901 102.743 104.288 102.293 105.063C102 105.537 101.393 106.118 100.898 106.398L99.9979 106.893H53.1293C0.905472 106.893 5.36058 107.022 4.07805 105.429C3.49303 104.697 3.47053 104.547 3.40303 101.684L3.31303 98.7137H8.06065C12.5158 98.7137 12.8308 98.6922 13.2583 98.2832C13.5058 98.0465 13.7083 97.573 13.7083 97.207C13.7083 96.8411 13.5058 96.3676 13.2583 96.1309C12.8308 95.7219 12.5158 95.7004 8.08315 95.7004H3.35803V76.4364V57.1725H53.0843H102.81V60.8316ZM108.166 76.3719L108.211 85.1536H97.2529C90.8177 85.1536 85.8676 85.046 85.3051 84.9384C81.7725 84.142 78.9374 81.2793 78.2624 77.814C77.3624 73.1002 81.0075 68.365 86.0026 67.7408C86.7676 67.6332 92.0552 67.5686 97.7479 67.5901L108.098 67.6116L108.166 76.3719Z" fill="#4086F4"/>
<path d="M85.7105 70.2808C82.8754 71.1202 80.7604 74.112 81.0529 76.8671C81.4129 80.2894 84.113 82.657 87.6005 82.657C93.4057 82.6786 96.3533 76.3721 92.5732 72.0673C92.2582 71.7014 91.3806 71.0987 90.6156 70.7543C89.4681 70.1947 88.9731 70.0871 87.758 70.1086C86.948 70.1086 86.0255 70.1947 85.7105 70.2808ZM88.9506 73.4018C91.3131 74.3488 91.6731 77.5128 89.5806 78.998C88.7256 79.6222 86.903 79.6867 85.9805 79.1486C83.7079 77.7711 83.8429 74.5425 86.2505 73.5094C87.353 73.0359 87.9605 73.0143 88.9506 73.4018Z" fill="#4086F4"/>
</svg>
