<svg width="111" height="102" viewBox="0 0 111 102" fill="none" xmlns="http://www.w3.org/2000/svg">
<path d="M4.09793 0.344014C3.48383 0.5503 2.61954 1.10727 1.9372 1.72613C-0.178035 3.64458 0.00392061 -0.254213 0.00392061 42.5913C0.00392061 85.4573 -0.155291 81.7648 1.89171 83.6214C3.96146 85.4986 1.86897 85.3542 31.9372 85.5399L58.3208 85.7049L59.7537 90.7383C60.5271 93.5025 61.4141 96.1842 61.687 96.6999C62.4148 97.9995 63.8705 99.4022 65.3034 100.186C67.6233 101.444 68.1237 101.486 79.8371 101.486C91.1184 101.486 91.8235 101.424 93.9842 100.434C95.2124 99.8561 97.032 98.3089 97.7371 97.195C98.9425 95.3384 99.17 94.1626 99.17 89.7275V85.643L102.309 85.5192C106.403 85.3336 107.585 85.0035 109.109 83.6214C111.156 81.7648 110.997 85.4367 110.997 42.6944C110.997 -0.0479278 111.156 3.62395 109.109 1.74675C106.971 -0.192328 112.407 -0.00667077 55.4095 0.0139578C10.2162 0.0139578 5.00771 0.0552148 4.09793 0.344014ZM106.585 3.0051C106.926 3.23201 107.426 3.68584 107.676 3.99526C108.131 4.53161 108.154 4.86166 108.222 11.3597L108.291 18.1464H55.5005H2.73326V11.6691C2.73326 4.94418 2.80149 4.42846 3.71128 3.52081C4.82576 2.4275 1.75525 2.48938 55.7735 2.53064L105.971 2.5719L106.585 3.0051ZM108.268 50.4095C108.268 70.9761 108.2 80.3827 108.018 80.7953C107.676 81.5998 106.721 82.4662 105.902 82.6931C105.516 82.7963 103.833 82.9613 102.195 83.0232L99.17 83.1676V80.424C99.17 77.1853 98.897 76.422 97.3504 75.2462C96.054 74.2354 94.6666 73.9466 92.938 74.3592L91.687 74.6686L90.5953 73.6785C89.2306 72.4407 87.8205 72.0075 86.2283 72.3376C85.6597 72.4407 85.0229 72.6058 84.8409 72.6883C84.6135 72.7708 84.386 72.6058 84.1131 72.2138C83.9084 71.8838 83.317 71.3474 82.7712 71.0174C81.9751 70.5429 81.5657 70.4398 80.4285 70.4398C79.6552 70.4398 78.8136 70.5223 78.518 70.6048L78.0176 70.7698V61.8583C78.0176 53.2356 77.9948 52.9055 77.5399 52.0391C76.5392 50.1413 73.9918 49.0274 71.7401 49.4812C70.1025 49.8112 68.8743 50.6776 68.1465 51.9979L67.5551 53.0912V65.9221V78.7531L66.1677 77.4535C64.1434 75.535 61.869 74.5449 58.571 74.1735C57.2973 74.0291 56.1829 74.4417 55.5687 75.2669C54.9092 76.1332 54.9092 76.8346 55.5233 78.1136C56.0464 79.2275 57.5475 82.8788 57.5475 83.0644C57.5475 83.2914 5.69005 82.92 5.03046 82.6931C4.21165 82.4043 3.4156 81.703 3.05168 80.9191C2.77875 80.3621 2.73326 75.2256 2.73326 50.4301V20.6219H55.5005H108.268V50.4095ZM73.7871 52.0597C75.3565 52.658 75.2882 52.2248 75.2882 63.3436C75.2882 76.257 75.4702 82.033 75.9023 82.425C76.4027 82.8788 77.4717 82.7756 77.8811 82.2599C78.1768 81.8886 78.245 81.0841 78.245 77.8042C78.245 73.8435 78.245 73.8229 78.8136 73.3278C79.405 72.7708 80.4512 72.647 81.2246 73.039C82.1343 73.4722 82.2935 74.2767 82.1571 78.093C82.0661 81.2285 82.0888 81.7236 82.43 82.198C82.7484 82.6519 82.9759 82.7344 83.6582 82.6725C84.8864 82.59 85.0684 82.1155 85.0684 78.6499V75.7413L85.7735 75.205C86.706 74.483 87.593 74.5036 88.5255 75.2669L89.2761 75.8651L89.3898 79.7432C89.5036 83.6008 89.5036 83.642 90.0494 83.8689C90.7318 84.1784 91.4596 83.9515 91.8235 83.312C92.0054 83.0026 92.1192 81.8886 92.1192 80.3415C92.1192 77.5566 92.3011 77.1234 93.5748 76.7315C94.5073 76.4633 95.2807 76.6902 95.963 77.4741C96.4634 78.0517 96.4634 78.093 96.3951 86.2L96.3269 94.3689L95.7128 95.4003C94.9395 96.7412 93.4156 98.0201 91.9827 98.5152C90.9365 98.8865 90.1404 98.9072 79.7234 98.9072C68.8288 98.9072 68.5559 98.9072 67.5324 98.474C66.1222 97.8757 64.7348 96.6999 64.1434 95.6272C63.8932 95.1321 62.8697 91.8522 61.869 88.3247C60.2541 82.6106 59.0032 78.9181 58.0934 77.3297C57.9342 77.0203 57.8432 76.7315 57.9114 76.6902C58.1389 76.4839 60.3451 76.9378 61.596 77.4535C63.2564 78.1342 64.5301 79.2688 66.2132 81.5173L67.5551 83.312V85.808C67.5551 88.0153 67.6006 88.3247 68.01 88.696C68.5786 89.2117 68.9425 89.2117 69.6931 88.6754L70.2844 88.2628V70.9349C70.2844 52.2454 70.2617 52.7817 71.4672 52.2454C72.6499 51.7091 72.8318 51.7091 73.7871 52.0597Z" fill="#FA7436"/>
<path d="M10.4668 5.54206C9.26135 5.76897 8.32883 6.28469 7.44179 7.2336C6.07712 8.6776 5.82693 10.6167 6.82769 12.3701C8.71548 15.6913 14.0832 15.7119 15.971 12.3907C17.9952 8.88388 14.6973 4.7788 10.4668 5.54206ZM12.9232 8.2444C13.1507 8.2444 13.8785 9.68839 13.8785 10.1629C13.8785 12.1432 11.3766 13.1127 9.73899 11.7719C7.82845 10.2247 9.67075 7.43988 12.1726 8.07937C12.5366 8.16188 12.8777 8.2444 12.9232 8.2444Z" fill="#FA7436"/>
<path d="M24.1129 5.60394C20.2691 6.24343 18.6997 10.8023 21.4291 13.4428C23.2941 15.2375 26.774 15.3406 28.73 13.6491C30.7543 11.8956 30.959 9.11079 29.1849 7.2336C27.843 5.81023 26.1372 5.25326 24.1129 5.60394ZM26.956 8.67759C27.5246 9.17268 27.6383 9.44085 27.6383 10.2247C27.6383 11.0292 27.5246 11.2562 26.8877 11.7719C25.2501 13.1127 22.7482 12.1432 22.7482 10.1628C22.7482 9.27582 23.5216 8.28565 24.3858 8.07937C25.4321 7.81119 26.1599 7.97622 26.956 8.67759Z" fill="#FA7436"/>
<path d="M38.0558 5.58468C32.9838 6.45107 32.2787 12.7634 37.0778 14.5993C38.3287 15.0738 40.6714 14.8675 41.8314 14.1661C43.287 13.2791 43.9921 12.1652 44.0831 10.4943C44.1513 9.3597 44.0831 8.90587 43.6737 8.16324C42.6502 6.22416 40.3758 5.19273 38.0558 5.58468ZM40.8989 8.76147C41.6722 9.58661 41.604 10.9894 40.7397 11.7732C40.1938 12.2477 39.8754 12.3715 39.0566 12.3715C37.328 12.3715 36.1908 11.0925 36.6457 9.60724C37.1915 7.87444 39.5797 7.39999 40.8989 8.76147Z" fill="#FA7436"/>
<path d="M58.9121 8.80191C58.0023 9.09071 57.7066 10.2253 58.4117 10.7822C58.7984 11.1123 60.7317 11.1329 81.6111 11.1329H104.401L104.765 10.6172C105.243 9.95711 105.038 9.21448 104.287 8.90505C103.855 8.7194 98.0099 8.65751 81.4746 8.67814C69.2608 8.67814 59.094 8.74002 58.9121 8.80191Z" fill="#FA7436"/>
<path d="M26.7059 33.3487C24.8636 35.3703 23.317 37.0618 23.2943 37.1031C23.2488 37.1443 22.6574 36.7317 21.9523 36.216C21.2473 35.7003 20.5194 35.2671 20.3602 35.2671C20.1783 35.2671 19.7689 35.4734 19.4277 35.7416C18.4952 36.4636 18.7909 37.0618 20.8379 38.547C22.521 39.7848 23.226 40.0117 24.204 39.6816C24.8409 39.4547 32.0736 31.4302 32.0736 30.9351C32.0736 30.11 31.6642 29.6974 30.8454 29.6974C30.1176 29.6974 29.8447 29.9449 26.7059 33.3487Z" fill="#FA7436"/>
<path d="M14.5371 30.8342C13.4681 31.3706 13.3999 31.8244 13.4681 38.6525L13.5363 45.006L14.1732 45.5011L14.81 45.9962H22.0883H29.3665L29.9124 45.4805C30.4582 45.006 30.481 44.8823 30.481 42.3243C30.481 40.0139 30.4355 39.622 30.0716 39.3332C29.503 38.8587 28.7524 38.9 28.2065 39.3951C27.8199 39.7458 27.7516 40.0758 27.7516 41.6642V43.5208H21.9518H16.1519L16.1974 38.3018L16.2657 33.1034L19.4499 33.0415C22.3612 33.0002 22.6569 32.959 23.0435 32.567C23.5666 31.9688 23.5439 31.6388 22.8616 31.0405C22.3157 30.5454 22.2475 30.5248 18.7221 30.5248C16.061 30.5454 14.9692 30.6073 14.5371 30.8342Z" fill="#FA7436"/>
<path d="M44.3551 31.4933C43.2406 31.8646 42.8767 32.8754 43.6273 33.4737C44.0139 33.8037 46.2656 33.8243 71.2618 33.8243C95.6894 33.8243 98.487 33.7831 98.8054 33.4943C99.1921 33.1642 99.2831 32.4422 98.9874 32.0297C98.8964 31.9059 98.5325 31.679 98.1913 31.5758C97.509 31.3489 45.0374 31.2664 44.3551 31.4933Z" fill="#FA7436"/>
<path d="M43.6729 42.0751C43.1043 42.5908 43.0815 43.3541 43.6274 43.7873C44.014 44.1173 46.2658 44.1379 71.2392 44.1379C97.2817 44.1379 98.4417 44.1173 98.7828 43.7666C99.3059 43.2509 99.2605 42.5702 98.7146 42.0751C98.2597 41.6625 97.964 41.6625 71.1937 41.6625C44.4234 41.6625 44.1278 41.6625 43.6729 42.0751Z" fill="#FA7436"/>
<path d="M26.9337 59.3424C25.2051 61.2402 23.6585 62.9317 23.5221 63.0968C23.2946 63.3649 23.1126 63.303 22.2711 62.6842C20.5653 61.4258 19.9057 61.3227 19.1324 62.1685C18.5865 62.7667 19.0414 63.4887 20.8382 64.7677C22.8625 66.2323 23.6813 66.3767 24.773 65.4278C25.1597 65.1184 26.9337 63.2412 28.7533 61.2608C32.1877 57.5271 32.5289 56.9495 31.7101 56.2275C31.5281 56.0418 31.0732 55.8974 30.7321 55.8974C30.1862 55.8974 29.6403 56.3925 26.9337 59.3424Z" fill="#FA7436"/>
<path d="M15.1068 56.8655C14.8339 56.9068 14.379 57.1749 14.0833 57.4637L13.5374 58.0001V64.5599V71.1198L14.0833 71.6562L14.6292 72.1925H21.9984H29.3676L29.9135 71.6768C30.4593 71.2023 30.4821 71.0786 30.4821 68.5C30.4821 65.9627 30.4593 65.7977 29.9817 65.5089C29.2766 65.055 28.7535 65.0963 28.2076 65.6326C27.821 66.0039 27.7527 66.3546 27.7527 67.9018V69.7171H21.9529H16.153L16.1985 64.4981L16.2668 59.2997L19.4965 59.2378C22.6807 59.1965 22.7489 59.1759 23.1129 58.6602C23.5905 58.0207 23.2721 57.2162 22.385 56.9274C21.8392 56.7211 16.1075 56.6798 15.1068 56.8655Z" fill="#FA7436"/>
<path d="M43.6045 58.1248C43.1268 58.5993 43.1041 59.1975 43.5362 59.7339C43.8547 60.1052 44.2641 60.1258 52.7023 60.1877C57.5469 60.2083 61.7546 60.1877 62.0275 60.1258C63.1875 59.8783 63.6196 58.7437 62.8236 58.1042C62.4369 57.7948 61.4362 57.7535 53.1799 57.7535C44.537 57.7535 43.9456 57.7742 43.6045 58.1248Z" fill="#FA7436"/>
<path d="M85.6141 58.2686C85.1819 58.8668 85.3639 59.5063 86.0917 59.9395C86.5239 60.2077 87.5474 60.2283 92.5739 60.187C98.169 60.1252 98.5557 60.1045 98.8514 59.7332C99.2835 59.1762 99.2608 58.4955 98.7604 58.1036C98.3965 57.7941 97.6004 57.7529 92.1645 57.7529H85.978L85.6141 58.2686Z" fill="#FA7436"/>
<path d="M44.1282 68.0062C43.2184 68.295 42.9227 69.4296 43.6278 69.9866C43.9689 70.2754 44.583 70.3373 46.994 70.3373C50.2464 70.3373 50.4966 70.2548 50.4966 69.1821C50.4966 68.0681 49.9053 67.8618 46.9712 67.8825C45.6065 67.8825 44.3101 67.9444 44.1282 68.0062Z" fill="#FA7436"/>
</svg>
