<svg width="101" height="110" viewBox="0 0 101 110" fill="none" xmlns="http://www.w3.org/2000/svg">
<path d="M45.1099 0.237885C30.2775 1.63599 16.6161 9.40086 8.14374 21.274C4.14863 26.8879 1.14082 34.6528 0.222407 41.7079C-0.121999 44.3965 -0.053118 49.4727 0.337208 51.6452C2.81693 64.8734 16.7998 83.5435 39.2551 103.59C43.8701 107.699 44.9033 108.516 46.3498 109.204C47.98 109.957 48.1866 110 50.276 110C52.3654 110 52.5721 109.957 54.2023 109.204C55.6488 108.516 56.682 107.699 61.297 103.59C75.8769 90.5771 87.6096 77.3058 94.0844 66.4436C97.2759 61.0663 99.1816 56.5278 100.123 52.0108C100.628 49.5803 100.72 44.7407 100.33 41.7079C99.4801 35.1045 96.8626 28.0279 93.2808 22.5646C90.5026 18.3487 85.9335 13.5091 81.8236 10.3903C71.5833 2.68995 58.2662 -1.00966 45.1099 0.237885ZM57.6234 3.74391C69.7694 5.63673 80.6067 11.7884 87.8622 20.9299C92.7068 27.017 95.5998 33.6204 96.7938 41.2777C97.3448 44.9558 97.1611 50.3331 96.3346 53.2154C92.7527 65.9489 79.9408 82.3605 58.5647 101.568C55.7176 104.106 53.4216 105.999 52.8246 106.279C51.447 106.903 49.9087 107.01 48.4851 106.559C47.1075 106.15 44.0308 103.569 37.2116 97.1804C22.7006 83.6081 13.195 72.1651 7.79933 61.8191C4.44712 55.4308 3.43686 51.8603 3.43686 46.5475C3.43686 26.931 18.2463 9.40086 38.9336 4.51824C40.6786 4.10956 44.3523 3.5073 46.258 3.33523C48.1866 3.16315 55.534 3.42127 57.6234 3.74391Z" fill="#FFB60A"/>
<path d="M46.3727 12.0456C37.8085 12.9705 30.4382 16.1754 24.2389 21.7033C18.6595 26.6934 14.9629 32.9096 13.2638 40.2658C12.8276 42.1586 12.7587 43.105 12.7587 47.1918C12.7587 51.2786 12.8276 52.225 13.2638 54.0963C14.3889 58.9144 16.616 63.754 19.4402 67.5181C21.6673 70.4649 25.938 74.3796 29.0146 76.3155C37.487 81.6067 46.6023 83.4996 56.5901 82.0154C57.8529 81.8218 59.2075 81.5422 59.6208 81.3917C60.8148 80.9184 60.9755 79.4128 59.8964 78.66C59.3223 78.2513 59.2764 78.2513 56.6819 78.7245C53.2608 79.3698 47.5896 79.4128 44.3063 78.832C37.2574 77.563 31.104 74.5302 26.0528 69.7766C22.8153 66.7653 19.1646 61.7536 19.8764 61.3234C20.0142 61.2374 22.7235 59.151 25.8691 56.6989C29.6116 53.7952 31.678 52.0529 31.7699 51.7088C32.0913 50.5473 30.6678 49.3428 29.5427 49.8375C29.2672 49.945 26.6038 51.9454 23.6419 54.2469L18.2462 58.4412L17.9248 57.7744C17.4197 56.6559 16.5701 53.279 16.2716 51.2356C15.8583 48.3318 16.1339 42.9975 16.8227 40.2013C19.7387 28.6938 28.5784 19.8104 40.4719 16.455C43.9848 15.4656 46.212 15.1644 50.276 15.1644C54.7303 15.1644 57.1641 15.5301 61.0903 16.7561C65.7283 18.1972 69.8612 20.4557 73.2823 23.4025C75.3487 25.2093 76.1293 25.4674 77.0018 24.65C78.081 23.6391 77.8514 23.0368 75.6931 21.1225C68.1391 14.4331 56.8197 10.9271 46.3727 12.0456Z" fill="#FFB60A"/>
<path d="M58.5416 26.8018C57.0492 27.318 55.0516 29.2323 54.5235 30.7165C53.6051 33.3191 54.5465 36.2444 56.8196 37.8791C60.3096 40.3741 65.1542 39.2987 67.2206 35.5776C68.0931 33.9859 68.0931 31.7489 67.1977 30.0497C66.417 28.5655 64.8787 27.2319 63.4322 26.7802C62.1005 26.3501 59.8963 26.3716 58.5416 26.8018ZM62.6745 29.9851C64.7639 30.9961 65.0623 33.7278 63.2485 35.2119C61.7561 36.4594 59.3911 36.2013 58.2202 34.6742C57.5543 33.8138 57.4854 32.0931 58.0594 31.2112C59.0238 29.7916 61.1132 29.2323 62.6745 29.9851Z" fill="#FFB60A"/>
<path d="M79.2288 27.855C78.6319 28.5648 78.6319 28.9305 79.2059 29.8769C80.3998 31.8342 81.9611 34.867 82.5351 36.3297C83.8209 39.7066 84.2801 42.1372 84.4179 46.4821C84.4868 48.7191 84.4868 50.5258 84.3949 50.5258C84.3031 50.5258 82.1448 48.9557 79.5962 47.0413C77.0476 45.1055 74.5908 43.3632 74.1546 43.1697C73.1443 42.6749 71.7667 42.6964 70.5957 43.1912C70.0906 43.4278 67.7257 45.1055 65.3608 46.9768C62.3759 49.2783 60.9524 50.2677 60.7687 50.1387C60.608 50.0311 57.3706 47.6221 53.5821 44.7613C49.7707 41.9221 46.4185 39.5346 46.1429 39.4485C45.0868 39.1259 43.4107 39.2765 42.5611 39.7497C40.908 40.6746 34.2495 46.0089 34.1117 46.5466C33.7903 47.7081 35.2138 48.9126 36.3389 48.4394C36.6144 48.3104 38.4512 46.9553 40.4028 45.4281C42.3545 43.901 44.1224 42.5889 44.3291 42.5244C44.5357 42.4383 44.949 42.5459 45.2704 42.7395C46.6021 43.5783 77.3691 66.7224 77.3691 66.8944C77.3691 66.9805 76.267 68.1205 74.9123 69.411C72.18 72.0137 69.9988 73.6054 67.0369 75.1755C65.9577 75.7348 64.9016 76.337 64.6949 76.5091C64.1209 76.9608 64.1668 78.1653 64.7408 78.7031C65.3837 79.3053 66.1414 79.2408 67.7946 78.4665C76.0144 74.5948 83.0403 66.8299 86.071 58.3122C87.5175 54.247 87.7931 52.4187 87.7931 47.1919C87.7931 41.9866 87.5175 40.1583 86.071 36.0716C85.2215 33.6195 82.9255 29.1886 81.9611 28.0916C81.0427 27.0807 79.9636 26.9731 79.2288 27.855ZM78.1956 50.0957C82.7418 53.4941 83.6602 54.2685 83.6143 54.6771C83.3387 56.4409 80.7213 62.3345 79.6192 63.7111C79.3436 64.0552 78.6319 63.5605 71.5601 58.2477C67.2894 55.0428 63.8454 52.3756 63.9143 52.3111C64.9245 51.3432 72.0652 46.0089 72.3407 46.0089C72.5474 46.0089 75.1649 47.8587 78.1956 50.0957Z" fill="#FFB60A"/>
</svg>
